# Blender v2.78 (sub 0) OBJ File: 'structure.blend'
# www.blender.org
mtllib structure.mtl
o Cube
v 1.000000 -1.000000 -1.000000
v 1.000000 -1.000000 1.000000
v -1.000000 -1.000000 1.000000
v -1.000000 -1.000000 -1.000000
v 1.000000 1.000000 -0.999999
v 0.999999 1.000000 1.000001
v -1.000000 1.000000 1.000000
v -1.000000 1.000000 -1.000000
v 0.049707 -1.000000 -1.000000
v 0.049707 -1.000000 1.000000
v 0.049707 1.000000 -1.000000
v 0.049706 1.000000 1.000000
v -0.475146 -1.000000 -1.000000
v -0.475147 -1.000000 1.000000
v -0.475146 1.000000 -1.000000
v -0.475147 1.000000 1.000000
v -1.399333 0.258331 1.370125
v 0.654764 1.705045 -0.572981
v 0.654763 1.705045 0.572981
v 0.110264 1.705045 -0.572981
v 0.110263 1.705045 0.572981
v -0.190467 1.705045 -0.572981
v -0.190468 1.705045 0.572981
v -1.000000 -1.000000 1.000000
v -1.000000 -1.000000 -1.000000
v -1.000000 1.000000 1.000000
v -1.000000 1.000000 -1.000000
v -1.864429 -0.283557 0.283557
v -1.864429 -0.283557 -0.283558
v -1.864430 0.283557 0.283557
v -1.864429 0.283557 -0.283557
v -2.333936 -0.283557 0.283557
v -2.333936 -0.283557 -0.283558
v -2.333936 0.283557 0.283556
v -2.333936 0.283557 -0.283558
v -1.864430 0.703697 0.283557
v -1.864429 0.703697 -0.283557
v -2.333936 0.703697 0.283556
v -2.333936 0.703697 -0.283558
v -1.864430 1.159121 0.283557
v -1.864429 1.159121 -0.283557
v -2.333936 1.159121 0.283556
v -2.333936 1.159121 -0.283558
v -1.864430 1.497170 0.283557
v -1.864429 1.497170 -0.283557
v -2.333936 1.497170 0.283556
v -2.333936 1.497170 -0.283558
v -1.864430 1.832252 0.283557
v -1.864429 1.832252 -0.283557
v -2.333936 1.832252 0.283556
v -2.333936 1.832252 -0.283558
v -2.015109 2.142567 0.101552
v -2.015109 2.142567 -0.101553
v -2.183257 2.142567 0.101552
v -2.183257 2.142567 -0.101553
v -2.782769 2.302618 -0.146827
v -2.782769 2.302618 -0.713941
v -2.313262 2.302618 -0.713941
v -2.632090 2.612933 -0.328831
v -2.632090 2.612933 -0.531936
v -2.463942 2.612933 -0.531936
v -2.841609 2.486107 -0.387278
v -2.841609 2.486107 -0.754416
v -2.537661 2.486107 -0.754416
v -2.744062 2.686998 -0.505104
v -2.744062 2.686998 -0.636590
v -2.635207 2.686998 -0.636590
v -1.603018 2.106205 0.534223
v -1.603017 2.106205 -0.032891
v -2.072524 2.106205 0.534223
v -1.753697 2.416520 0.352218
v -1.753697 2.416520 0.149114
v -1.921845 2.416520 0.352218
v -1.418956 2.443286 0.691845
v -1.418956 2.443286 0.361417
v -1.692513 2.443286 0.691845
v -1.506749 2.624091 0.585800
v -1.506749 2.624091 0.467462
v -1.604720 2.624091 0.585800
v -0.929690 2.956025 1.160999
v -0.929690 2.956025 0.830571
v -1.203248 2.956025 1.160999
v -1.017483 3.136829 1.054955
v -1.017483 3.136829 0.936616
v -1.115454 3.136829 1.054955
v -0.832348 3.169097 1.239804
v -0.832348 3.169097 1.091680
v -0.954977 3.169097 1.239804
v -0.871703 3.250148 1.192266
v -0.871703 3.250148 1.139217
v -0.915621 3.250148 1.192266
v -0.075204 3.962566 1.965824
v -0.075204 3.962566 1.817700
v -0.197833 3.962566 1.965824
v -0.114559 4.043617 1.918286
v -0.114559 4.043617 1.865238
v -0.158478 4.043617 1.918286
v -0.025016 4.015161 2.013948
v -0.025016 4.015161 1.865825
v -0.147646 4.015161 2.013948
v -0.064372 4.096212 1.966411
v -0.064372 4.096212 1.913362
v -0.108290 4.096212 1.966411
v 0.654764 2.254481 -0.572981
v 0.654763 2.254481 0.572981
v 0.110264 2.254481 -0.572981
v 0.110263 2.254481 0.572981
v -0.190467 2.254481 -0.572981
v -0.190468 2.254481 0.572981
v 0.654764 2.797553 -0.572981
v 0.654763 2.797553 0.572981
v 0.110264 2.797553 -0.572981
v 0.110263 2.797553 0.572981
v -0.190467 2.797553 -0.572981
v -0.190468 2.797553 0.572981
v 0.654764 3.403367 -0.572981
v 0.654763 3.403367 0.572981
v 0.110264 3.403367 -0.572981
v 0.110263 3.403367 0.572981
v -0.190467 3.403367 -0.572981
v -0.190468 3.403367 0.572981
v 0.457369 3.980009 -0.328826
v 0.457369 3.980009 0.328826
v 0.144888 3.980009 -0.328826
v 0.144888 3.980009 0.328826
v -0.027697 3.980009 -0.328826
v -0.027697 3.980009 0.328826
v 0.457369 4.335061 -0.328826
v 0.457369 4.335061 0.328826
v 0.144888 4.335061 -0.328826
v 0.144888 4.335061 0.328826
v -0.027697 4.335061 -0.328826
v -0.027697 4.335061 0.328826
v 0.457369 4.623148 -0.328826
v 0.457369 4.623148 0.328826
v 0.144888 4.623148 -0.328826
v 0.144888 4.623148 0.328826
v -0.027697 4.623148 -0.328826
v -0.027697 4.623148 0.328826
v 0.457369 4.918021 -0.328826
v 0.457369 4.918021 0.328826
v 0.144888 4.918021 -0.328826
v 0.144888 4.918021 0.328826
v -0.027697 4.918021 -0.328826
v -0.027697 4.918021 0.328826
v 0.262018 5.173887 -0.087198
v 0.262018 5.173887 0.087198
v 0.179154 5.173887 -0.087198
v 0.179154 5.173887 0.087198
v 0.133388 5.173887 -0.087198
v 0.133388 5.173887 0.087198
v -2.654607 -0.283557 0.283557
v -2.654607 -0.283557 -0.283558
v -2.654607 0.283557 0.283556
v -2.654607 0.283557 -0.283558
v -2.943948 -0.570435 0.570434
v -2.943948 -0.570435 -0.570435
v -2.943948 0.570434 0.570434
v -2.943948 0.570434 -0.570435
v -3.357184 -0.570435 0.570434
v -3.357184 -0.570435 -0.570435
v -3.357184 0.570434 0.570434
v -3.357184 0.570434 -0.570435
v -3.801522 -0.158078 0.158078
v -3.801522 -0.158078 -0.158079
v -3.801522 0.158078 0.158078
v -3.801522 0.158078 -0.158079
v -4.266934 -0.158078 0.158078
v -4.266934 -0.158078 -0.158079
v -4.266934 0.158078 0.158078
v -4.266934 0.158078 -0.158079
v -4.675805 -0.158078 0.158078
v -4.675805 -0.158078 -0.158079
v -4.675805 0.158078 0.158078
v -4.675805 0.158078 -0.158079
v -5.043008 -0.287732 0.287732
v -5.043008 -0.287732 -0.287733
v -5.043008 0.287732 0.287732
v -5.043008 0.287732 -0.287733
vn 0.0000 -1.0000 0.0000
vn 0.0000 1.0000 0.0000
vn 1.0000 -0.0000 0.0000
vn 0.0000 -0.0000 1.0000
vn 0.0000 0.0000 -1.0000
vn -0.0000 0.5181 0.8553
vn 0.0000 0.5181 -0.8553
vn -1.0000 0.0000 -0.0000
vn 0.8981 0.4398 0.0000
vn -0.9273 0.3744 -0.0000
vn -0.6381 -0.7699 -0.0000
vn -0.6381 0.7699 -0.0000
vn -0.6381 -0.0000 0.7699
vn -0.6381 0.0000 -0.7699
vn -0.7235 0.6904 -0.0000
vn -0.0000 0.6751 0.7378
vn -0.7235 -0.6904 0.0000
vn -0.0000 -0.6751 0.7378
vn -0.9522 -0.3054 0.0000
vn 0.5517 0.8341 0.0000
vn 0.8047 0.5380 -0.2511
vn -0.1839 0.5622 0.8063
vn 0.0000 -0.6751 -0.7378
vn 0.7235 0.6904 0.0000
vn -0.8996 0.4368 0.0000
vn 0.0000 0.5059 -0.8626
vn -0.0000 0.8163 0.5777
vn 0.0000 -0.2154 -0.9765
vn 0.5895 0.6021 -0.5385
vn -0.5317 0.6055 0.5922
vn -0.6932 0.5842 0.4221
vn 0.8777 -0.4793 0.0000
vn 0.1839 0.5622 -0.8063
vn -0.8047 0.5380 0.2511
vn 0.7235 -0.6904 0.0000
vn 0.0000 0.6751 -0.7378
vn 0.0000 0.7475 -0.6643
vn -0.0000 -0.4236 0.9059
vn 0.3938 0.5998 -0.6966
vn -0.6434 0.7655 0.0000
vn 0.0000 0.7713 -0.6365
vn -0.6566 0.5925 0.4666
vn 0.0000 -0.3469 0.9379
vn 0.4472 0.6040 -0.6596
vn -0.6137 0.7895 0.0000
vn 0.9096 -0.4155 0.0000
vn 0.0000 0.5059 0.8626
vn 0.8996 0.4368 0.0000
vn -0.9624 0.2717 -0.0000
vn 0.0000 0.3899 -0.9209
vn -0.0000 0.3899 0.9209
vn 0.9461 0.3239 0.0000
vn 0.0000 0.6866 -0.7270
vn -0.8463 0.5328 -0.0000
vn -0.0000 0.6866 0.7270
vn 0.7948 0.6068 0.0000
vn 0.7041 0.0000 -0.7101
vn 0.7041 -0.7101 0.0000
vn 0.7041 0.7101 0.0000
vn 0.7041 -0.0000 0.7101
vn -0.6802 0.7330 0.0000
vn -0.6802 0.0000 0.7330
vn -0.6802 0.0000 -0.7330
vn -0.6802 -0.7330 0.0000
vn 0.3329 0.0000 0.9429
vn 0.3329 0.0000 -0.9429
vn 0.3329 -0.9429 0.0000
vn 0.3329 0.9429 0.0000
vn -0.8047 0.5380 0.2512
vn 0.1840 0.5622 -0.8063
usemtl Material
s off
f 14//1 4//1 13//1
f 15//2 7//2 16//2
f 5//3 2//3 1//3
f 16//4 3//4 14//4
f 8//4 25//4 27//4
f 15//5 4//5 8//5
f 1//5 11//5 5//5
f 6//4 10//4 2//4
f 12//6 23//6 16//6
f 2//1 9//1 1//1
f 11//5 13//5 15//5
f 12//4 14//4 10//4
f 11//7 18//7 5//7
f 10//1 13//1 9//1
f 23//8 108//8 22//8
f 20//5 104//5 18//5
f 6//9 18//9 19//9
f 16//10 22//10 15//10
f 12//6 19//6 21//6
f 11//7 22//7 20//7
f 24//11 29//11 25//11
f 4//4 24//4 25//4
f 3//4 26//4 24//4
f 7//4 27//4 26//4
f 31//3 36//3 30//3
f 27//12 30//12 26//12
f 26//13 28//13 24//13
f 25//14 31//14 27//14
f 33//5 155//5 35//5
f 30//4 32//4 28//4
f 29//5 35//5 31//5
f 28//1 33//1 29//1
f 36//4 42//4 38//4
f 31//5 39//5 37//5
f 30//4 38//4 34//4
f 34//8 39//8 35//8
f 42//8 47//8 43//8
f 38//8 43//8 39//8
f 37//5 43//5 41//5
f 37//3 40//3 36//3
f 45//5 51//5 49//5
f 41//5 47//5 45//5
f 41//3 44//3 40//3
f 40//4 46//4 42//4
f 52//15 72//15 53//15
f 45//3 48//3 44//3
f 44//4 50//4 46//4
f 46//8 51//8 47//8
f 53//2 54//2 52//2
f 55//16 61//16 60//16
f 51//17 56//17 57//17
f 48//18 70//18 50//18
f 57//19 62//19 63//19
f 60//20 65//20 59//20
f 53//21 58//21 61//21
f 54//22 56//22 50//22
f 51//23 58//23 49//23
f 55//24 59//24 54//24
f 62//25 66//25 63//25
f 64//26 66//26 67//26
f 60//27 67//27 66//27
f 57//28 64//28 58//28
f 61//29 64//29 67//29
f 59//30 62//30 56//30
f 73//31 76//31 79//31
f 68//32 75//32 74//32
f 53//33 69//33 49//33
f 54//34 70//34 73//34
f 48//35 69//35 68//35
f 52//36 73//36 71//36
f 77//15 84//15 78//15
f 78//33 81//33 75//33
f 71//37 79//37 77//37
f 68//38 76//38 70//38
f 72//39 75//39 69//39
f 71//40 78//40 72//40
f 83//41 91//41 89//41
f 85//42 88//42 91//42
f 74//35 81//35 80//35
f 79//34 82//34 85//34
f 77//36 85//36 83//36
f 74//18 82//18 76//18
f 89//15 96//15 90//15
f 90//33 93//33 87//33
f 80//43 88//43 82//43
f 84//44 87//44 81//44
f 83//45 90//45 84//45
f 80//46 87//46 86//46
f 95//36 103//36 101//36
f 97//34 100//34 103//34
f 86//35 93//35 92//35
f 91//34 94//34 97//34
f 89//36 97//36 95//36
f 86//18 94//18 88//18
f 98//47 103//47 100//47
f 98//48 102//48 101//48
f 92//18 100//18 94//18
f 96//33 99//33 93//33
f 95//15 102//15 96//15
f 92//35 99//35 98//35
f 106//5 110//5 104//5
f 107//4 115//4 109//4
f 22//5 106//5 20//5
f 19//4 107//4 21//4
f 18//3 105//3 19//3
f 21//4 109//4 23//4
f 111//4 119//4 113//4
f 114//5 118//5 112//5
f 109//8 114//8 108//8
f 108//5 112//5 106//5
f 105//4 113//4 107//4
f 104//3 111//3 105//3
f 121//49 126//49 120//49
f 118//50 122//50 116//50
f 110//3 117//3 111//3
f 113//4 121//4 115//4
f 112//5 116//5 110//5
f 115//8 120//8 114//8
f 122//3 129//3 123//3
f 123//4 131//4 125//4
f 118//50 126//50 124//50
f 119//51 123//51 125//51
f 116//52 123//52 117//52
f 119//51 127//51 121//51
f 133//8 138//8 132//8
f 130//5 134//5 128//5
f 125//4 133//4 127//4
f 124//5 128//5 122//5
f 127//8 132//8 126//8
f 126//5 130//5 124//5
f 137//4 145//4 139//4
f 134//3 141//3 135//3
f 132//5 136//5 130//5
f 129//4 137//4 131//4
f 128//3 135//3 129//3
f 131//4 139//4 133//4
f 142//53 150//53 148//53
f 145//54 150//54 144//54
f 136//5 140//5 134//5
f 139//8 144//8 138//8
f 138//5 142//5 136//5
f 135//4 143//4 137//4
f 148//2 147//2 146//2
f 150//2 149//2 148//2
f 143//55 147//55 149//55
f 140//56 147//56 141//56
f 143//55 151//55 145//55
f 142//53 146//53 140//53
f 153//57 159//57 155//57
f 32//1 153//1 33//1
f 35//2 154//2 34//2
f 34//4 152//4 32//4
f 156//1 161//1 157//1
f 152//58 157//58 153//58
f 155//59 158//59 154//59
f 152//60 158//60 156//60
f 163//61 166//61 162//61
f 159//2 162//2 158//2
f 158//4 160//4 156//4
f 157//5 163//5 159//5
f 165//5 171//5 167//5
f 160//62 166//62 164//62
f 161//63 167//63 163//63
f 160//64 165//64 161//64
f 171//2 174//2 170//2
f 164//1 169//1 165//1
f 167//2 170//2 166//2
f 166//4 168//4 164//4
f 174//65 176//65 172//65
f 170//4 172//4 168//4
f 169//5 175//5 171//5
f 168//1 173//1 169//1
f 178//8 177//8 176//8
f 175//66 177//66 179//66
f 173//67 176//67 177//67
f 175//68 178//68 174//68
f 14//1 3//1 4//1
f 15//2 8//2 7//2
f 5//3 6//3 2//3
f 16//4 7//4 3//4
f 8//4 4//4 25//4
f 15//5 13//5 4//5
f 1//5 9//5 11//5
f 6//4 12//4 10//4
f 12//6 21//6 23//6
f 2//1 10//1 9//1
f 11//5 9//5 13//5
f 12//4 16//4 14//4
f 11//7 20//7 18//7
f 10//1 14//1 13//1
f 23//8 109//8 108//8
f 20//5 106//5 104//5
f 6//9 5//9 18//9
f 16//10 23//10 22//10
f 12//6 6//6 19//6
f 11//7 15//7 22//7
f 24//11 28//11 29//11
f 4//4 3//4 24//4
f 3//4 7//4 26//4
f 7//4 8//4 27//4
f 31//3 37//3 36//3
f 27//12 31//12 30//12
f 26//13 30//13 28//13
f 25//14 29//14 31//14
f 33//5 153//5 155//5
f 30//4 34//4 32//4
f 29//5 33//5 35//5
f 28//1 32//1 33//1
f 36//4 40//4 42//4
f 31//5 35//5 39//5
f 30//4 36//4 38//4
f 34//8 38//8 39//8
f 42//8 46//8 47//8
f 38//8 42//8 43//8
f 37//5 39//5 43//5
f 37//3 41//3 40//3
f 45//5 47//5 51//5
f 41//5 43//5 47//5
f 41//3 45//3 44//3
f 40//4 44//4 46//4
f 52//15 71//15 72//15
f 45//3 49//3 48//3
f 44//4 48//4 50//4
f 46//8 50//8 51//8
f 53//2 55//2 54//2
f 55//16 53//16 61//16
f 51//17 50//17 56//17
f 48//18 68//18 70//18
f 57//19 56//19 62//19
f 60//20 66//20 65//20
f 53//21 49//21 58//21
f 54//22 59//22 56//22
f 51//23 57//23 58//23
f 55//24 60//24 59//24
f 62//25 65//25 66//25
f 64//26 63//26 66//26
f 60//27 61//27 67//27
f 57//28 63//28 64//28
f 61//29 58//29 64//29
f 59//30 65//30 62//30
f 73//31 70//31 76//31
f 68//32 69//32 75//32
f 53//33 72//33 69//33
f 54//34 50//34 70//34
f 48//35 49//35 69//35
f 52//36 54//36 73//36
f 77//15 83//15 84//15
f 78//33 84//33 81//33
f 71//37 73//37 79//37
f 68//38 74//38 76//38
f 72//39 78//39 75//39
f 71//40 77//40 78//40
f 83//41 85//41 91//41
f 85//42 82//42 88//42
f 74//35 75//35 81//35
f 79//34 76//34 82//34
f 77//36 79//36 85//36
f 74//18 80//18 82//18
f 89//15 95//15 96//15
f 90//33 96//33 93//33
f 80//43 86//43 88//43
f 84//44 90//44 87//44
f 83//45 89//45 90//45
f 80//46 81//46 87//46
f 95//36 97//36 103//36
f 97//69 94//69 100//69
f 86//35 87//35 93//35
f 91//34 88//34 94//34
f 89//36 91//36 97//36
f 86//18 92//18 94//18
f 98//47 101//47 103//47
f 98//48 99//48 102//48
f 92//18 98//18 100//18
f 96//70 102//70 99//70
f 95//15 101//15 102//15
f 92//35 93//35 99//35
f 106//5 112//5 110//5
f 107//4 113//4 115//4
f 22//5 108//5 106//5
f 19//4 105//4 107//4
f 18//3 104//3 105//3
f 21//4 107//4 109//4
f 111//4 117//4 119//4
f 114//5 120//5 118//5
f 109//8 115//8 114//8
f 108//5 114//5 112//5
f 105//4 111//4 113//4
f 104//3 110//3 111//3
f 121//49 127//49 126//49
f 118//50 124//50 122//50
f 110//3 116//3 117//3
f 113//4 119//4 121//4
f 112//5 118//5 116//5
f 115//8 121//8 120//8
f 122//3 128//3 129//3
f 123//4 129//4 131//4
f 118//50 120//50 126//50
f 119//51 117//51 123//51
f 116//52 122//52 123//52
f 119//51 125//51 127//51
f 133//8 139//8 138//8
f 130//5 136//5 134//5
f 125//4 131//4 133//4
f 124//5 130//5 128//5
f 127//8 133//8 132//8
f 126//5 132//5 130//5
f 137//4 143//4 145//4
f 134//3 140//3 141//3
f 132//5 138//5 136//5
f 129//4 135//4 137//4
f 128//3 134//3 135//3
f 131//4 137//4 139//4
f 142//53 144//53 150//53
f 145//54 151//54 150//54
f 136//5 142//5 140//5
f 139//8 145//8 144//8
f 138//5 144//5 142//5
f 135//4 141//4 143//4
f 148//2 149//2 147//2
f 150//2 151//2 149//2
f 143//55 141//55 147//55
f 140//56 146//56 147//56
f 143//55 149//55 151//55
f 142//53 148//53 146//53
f 153//57 157//57 159//57
f 32//1 152//1 153//1
f 35//2 155//2 154//2
f 34//4 154//4 152//4
f 156//1 160//1 161//1
f 152//58 156//58 157//58
f 155//59 159//59 158//59
f 152//60 154//60 158//60
f 163//61 167//61 166//61
f 159//2 163//2 162//2
f 158//4 162//4 160//4
f 157//5 161//5 163//5
f 165//5 169//5 171//5
f 160//62 162//62 166//62
f 161//63 165//63 167//63
f 160//64 164//64 165//64
f 171//2 175//2 174//2
f 164//1 168//1 169//1
f 167//2 171//2 170//2
f 166//4 170//4 168//4
f 174//65 178//65 176//65
f 170//4 174//4 172//4
f 169//5 173//5 175//5
f 168//1 172//1 173//1
f 178//8 179//8 177//8
f 175//66 173//66 177//66
f 173//67 172//67 176//67
f 175//68 179//68 178//68
